<svg xmlns="http://www.w3.org/2000/svg" xml:space="preserve" width="350" height="200" version="1" shape-rendering="geometricPrecision" text-rendering="geometricPrecision" image-rendering="optimizeQuality" fill-rule="evenodd" clip-rule="evenodd" viewBox="0 0 35000 19994"><path fill="#0F65AB" d="M0 0h35000v19994H0z"/><path fill="#373435" fill-opacity=".149" d="M15593 19994H0v-5914l7563-8416-81 108-70 115-59 122-46 128-35 134-2 14 399-445 10-9 14-7 17-5 19-4 20-3 20-2 18-2 15-2 898-158 2013-2241-80 107-70 116-59 122-47 128-34 134-22 138-7 143 7 143 13 83 592-659 36-38 45-29 51-20 55-13 56-7 55-1 28 2 301-335 10-3 15 2 31 11 30 12 27 14 26 16 24 18 24 20 23 22 22 26 22 34 15 36 6 39-2 38-12 39-21 37-209 233 66-18 105-30 70-19 438-118 48-12 42-13 36-10 33-5 28 4 24 15 21 29 18 45 2 8 2 7 2 8 1 7 2 7 2 8 2 8 2 9 2 7 2 7 3 6 2 6 2 5 2 6 2 7 2 8 122 459 25 87 17 65 6 49-10 35-892 994 40-2 139-21 133-35 129-47 122-59 115-69 107-81 99-90 90-99-1528 1701h1627l3160-3517-85 106-75 114-64 122-52 131-40 137-25 140-11 140 3 138 15 125 996-1109 5-5 5-3 5-2 7-2 7-2 10-1 38-6 41-4 43-4 45-2h45l45 2 42 4 39 7 41 12 39 14 38 17 36 20 35 21 33 24 31 26 29 27 23 22 17 17 10 13 4 12-2 13-8 16-13 23-19 31-5 8-5 9-5 9-6 9-5 9-6 9-5 9-5 10-11 19-11 18-11 19-10 18-11 18-11 18-10 18-11 20-6 9-5 10-6 9-5 9-6 9-5 10-6 9-5 9-6 9-3 6 293-326 28 15 36 29 48 38 62 42 80 39 100 31 124 17 150-2 11-1 12-2 12-1 12-2 11-1 10-1h10l8 2-11 25-24 46-33 59-38 67-39 67-37 62-30 51-19 32-93 161-8 13-5 9-5 6-90 100h6l5-1 6-1 5-1h5l4 1 3 2 2 4-1 6-66 117-32 56-32 56-34 58-34 57-34 58-33 57-32 56-31 55-5 8-4 7-457 507 37 3 139-3 135-16 132-29 128-42 123-54 117-65 110-76 103-86 94-96-1493 1661h1165l3124-3477-80 107-70 116-59 122-47 128-35 134-17 114 488-543 26-24 28-17 31-9 33-2 35 5 36 11 37 18 35 20 64-72 33-26 42-28 48-28 49-27 48-23 42-19 32-11 16-5 13-4 10-4 9-3 9-3 12-3 14-4 20-3 11-2 9-2 9-2 10-3 11-2 14-3 17-2 20-3 151-9 144 13 136 33 127 51 117 67 106 81 94 94 81 106 66 115 51 123 35 129 17 134-2 136-21 137-42 137-64 135-55 86-62 79-657 731 134-20 133-35 129-47 122-59 115-69 107-81 99-90 90-99-1528 1701h1027l-110 122h110l-776 864v458l15 100 42 75 59 55 67 37 68 23 34 8 84-94v105h217l2672-2973-81 108-69 115-59 122-47 128-35 134-11 72 474-526 1077-167v155h655l16 1 14 4 14 7 11 9 10 10 7 12 5 13 2 15v1283l-2 15-5 13-7 12-654 727 43-6 134-35 128-46 123-59 115-70 107-81 99-90-2843 3165v1023h105l-118 131h26l1647-1833-90 99-80 108-70 115-59 122-47 128-34 133-4 25 424-471 1079-177-1 266 53-59h747l3 3 2 3 2 2 2 3 2 3 1 3 1 4 1 5-1 1289 1 16v30l-1 7-3 6-4 7-6 9-592 658 75-19 128-47 122-58 115-70 107-81 99-90-7185 7997h-5218z"/><path fill="#F4EBEB" fill-rule="nonzero" d="M25115 13468c0 349-283 633-632 633h-132c-350 0-633-284-633-633v-1108c0-350 283-633 633-633h132c349 0 632 283 632 633v1108z"/><path fill="#DACDCD" fill-rule="nonzero" d="M24384 12511h-534v-151c0-277 224-502 501-502h33v653zM24984 12511h-548v-653h47c276 0 501 225 501 502v151zM21990 7471v857c0 197 265 204 266 204l-4 105c-1 0-367-9-367-309v-857h105z"/><path fill="#DACDCD" fill-rule="nonzero" d="M22254 8532h691v105h-691v-105zM22945 8532c290 0 285 283 285 284h-106s4-179-179-179v-105zM23230 8816v1147h-106V8816h106z"/><path fill="#DACDCD" fill-rule="nonzero" d="M23230 9235v856c0 197 264 204 265 204l-3 105c-1 0-368-9-368-309v-856h106z"/><path fill="#DACDCD" fill-rule="nonzero" d="M23494 10295h691v105h-691v-105zM24185 10295c290 0 284 284 284 284h-105s3-179-179-179v-105zM24469 10579v1148h-105v-1148h105z"/><path fill="#F4EBEB" fill-rule="nonzero" d="M11882 7690v3063h9919V7690h-9919zm9893 3037h-9866V7716h9866v3011z"/><path fill="#F4EBEB" fill-rule="nonzero" d="M11539 7006v5563h10602V7006H11539zm6247 4905v449h-2096v-1385h2096v936zm4042-1131h-9972V7664h9972v3116z"/><path fill="#DFD3D1" fill-rule="nonzero" d="M11909 10727h9866V7716h-9866v3011zm9103-2767h504v505h-504v-505zm0 683h504v504h-504v-504zm0 653h504v504h-504v-504zm-178 1172h-1187v-505h1187v505zm-505-2508h505v505h-505v-505zm0 683h505v504h-505v-504zm0 653h505v504h-505v-504zm-683-1336h505v505h-505v-505zm0 683h505v504h-505v-504zm0 653h505v504h-505v-504zm-682-1336h504v505h-504v-505zm0 683h504v504h-504v-504zm0 653h504v504h-504v-504zm0 667h504v505h-504v-505zm-683-2003h505v505h-505v-505zm0 683h505v504h-505v-504zm0 653h505v504h-505v-504zm0 667h505v505h-505v-505zm-682-2003h504v505h-504v-505zm0 683h504v504h-504v-504zm0 653h504v504h-504v-504zm0 667h504v505h-504v-505zm-683-2003h505v505h-505v-505zm0 683h505v504h-505v-504zm0 653h505v504h-505v-504zm-682-1336h504v505h-504v-505zm0 683h504v504h-504v-504zm0 653h504v504h-504v-504zm-683-1336h504v505h-504v-505zm0 683h504v504h-504v-504zm0 653h504v504h-504v-504zm-683-1336h505v505h-505v-505zm0 683h505v504h-505v-504zm0 653h505v504h-505v-504zm-682-1336h504v505h-504v-505zm0 683h504v504h-504v-504zm0 653h504v504h-504v-504zm-683-1336h505v505h-505v-505zm0 683h505v504h-505v-504zm0 653h505v504h-505v-504zm0 667h3918v505h-3918v-505zm-682-2003h504v505h-504v-505zm0 683h504v504h-504v-504zm0 653h504v504h-504v-504zm0 667h504v505h-504v-505zm-713-2003h505v505h-505v-505zm0 683h505v504h-505v-504zm0 653h505v504h-505v-504zm0 667h505v505h-505v-505z"/><path fill="#AC9E9E" fill-rule="nonzero" d="M12613 7960h-505v505h505v-505zM13325 7960h-504v505h504v-505zM14008 7960h-505v505h505v-505zM14690 7960h-504v505h504v-505zM15373 7960h-505v505h505v-505zM16055 7960h-504v505h504v-505zM16738 7960h-504v505h504v-505zM17421 7960h-505v505h505v-505zM18103 7960h-504v505h504v-505zM18786 7960h-505v505h505v-505zM19468 7960h-504v505h504v-505zM20151 7960h-505v505h505v-505zM20834 7960h-505v505h505v-505zM21516 7960h-504v505h504v-505zM12613 8643h-505v504h505v-504zM13325 8643h-504v504h504v-504zM14008 8643h-505v504h505v-504zM14690 8643h-504v504h504v-504zM15373 8643h-505v504h505v-504zM16055 8643h-504v504h504v-504zM16738 8643h-504v504h504v-504zM17421 8643h-505v504h505v-504zM18103 8643h-504v504h504v-504zM18786 8643h-505v504h505v-504zM19468 8643h-504v504h504v-504zM20151 8643h-505v504h505v-504zM20834 8643h-505v504h505v-504zM21516 8643h-504v504h504v-504zM12613 9296h-505v504h505v-504zM13325 9296h-504v504h504v-504zM14008 9296h-505v504h505v-504zM14690 9296h-504v504h504v-504zM15373 9296h-505v504h505v-504zM16055 9296h-504v504h504v-504zM16738 9296h-504v504h504v-504zM17421 9296h-505v504h505v-504zM18103 9296h-504v504h504v-504zM18786 9296h-505v504h505v-504zM19468 9296h-504v504h504v-504zM20151 9296h-505v504h505v-504zM20834 9296h-505v504h505v-504zM21516 9296h-504v504h504v-504zM12613 9963h-505v505h505v-505zM13325 9963h-504v505h504v-505zM17421 9963h-3918v505h3918v-505zM18103 9963h-504v505h504v-505zM18786 9963h-505v505h505v-505zM19468 9963h-504v505h504v-505zM19647 10468h1187v-505h-1187v505z"/><path fill="#DFD3D1" fill-rule="nonzero" d="M16712 11911h1022v-883h-1992v883h970z"/><path fill="#AC9E9E" fill-rule="nonzero" d="M15690 11911v449h2096v-1385h-2096v936zm2044-883v883h-1992v-883h1992zm-970 1279v-343h970v343h-970zm-1022-211v-132h970v343h-970v-211z"/><path fill="#DFD3D1" fill-rule="nonzero" d="M16712 11964h-970v343h970v-343zM17734 12096v-132h-970v343h970v-211z"/><path fill="#B3B3B3" fill-rule="nonzero" d="M11856 7664v3116h9972V7664h-9972zm9945 26v3063h-9919V7690h9919z"/><path fill="#E6E6E6" fill-rule="nonzero" d="M13623 7527h-1767v-364h1767v364zM21828 7527h-1767v-364h1767v364z"/><path fill="#F4F4F4" fill-rule="nonzero" d="M22028 6251H11650c-350 0-633 284-633 633h11644c0-349-284-633-633-633z"/><path fill="#AC9E9E" fill-rule="nonzero" d="M22661 7006H11017v-122h11644v122z"/><path fill="#DACDCD" fill-rule="nonzero" d="M22141 11305h232v105h-232v-105zM22373 11305c189 0 360 77 485 201 124 124 200 295 200 484h-105c0-160-65-305-170-410s-250-170-410-170v-105zM23058 11990v2722h-105v-2722h105zM23058 14712c0 189-76 360-200 484-125 125-296 201-485 201v-105c160 0 305-65 410-170s170-250 170-410h105zM22373 15397h-1500v-105h1500v105z"/><path fill="#666" fill-rule="nonzero" d="M17403 13973h-76v4c-316 35-563 303-563 629v1478c0 325 247 593 563 628v4h3543v-2743h-3467z"/><path fill="#AC9E9E" fill-rule="nonzero" d="M17586 16486h3006v-2283h-3006v2283zM17494 16300h-462v-295h462v295zM17494 15898h-462v-294h462v294zM17494 14971h-462v-289h462v289zM17494 14625h-462v-288h462v288zM17494 15301c0 127-104 230-231 230s-231-103-231-230c0-128 104-231 231-231s231 103 231 231z"/><path fill="#666" fill-rule="nonzero" d="M17415 15301c0 83-68 151-152 151s-152-68-152-151c0-84 68-152 152-152s152 68 152 152z"/><path fill="#EDB895" fill-rule="nonzero" d="M12002 13409h2221v-2149h-2221v2149z"/><path fill="#EDB895" fill-rule="nonzero" d="M12804 9316c130 0 235 105 235 234v1777h-469V9550c0-129 105-234 234-234zM13401 9135c129 0 234 105 234 234v1983l-468-54V9369c0-129 105-234 234-234zM13993 9614c127 0 230 103 230 230v1816h-460V9844c0-127 103-230 230-230zM12222 9793c122 0 220 99 220 220v1285l-440 29v-1314c0-121 98-220 220-220z"/><path fill="#DDA885" fill-rule="nonzero" d="M14223 13424v-1398l259-326v1c55-57 132-92 218-92 167 0 303 136 303 304 0 49-12 94-33 135h1l-14 25c-3 4-5 8-7 11l-727 1340z"/><path fill="#EDB895" fill-rule="nonzero" d="M12002 13396c0 169 136 305 305 305h1612c169 0 305-136 305-305 0-168-136-305-305-305h-1612c-169 0-305 137-305 305z"/><path fill="#EDB895" fill-rule="nonzero" d="M12410 15585h1404v-2228h-1404v2228zM20475 13409h-2221v-2149h2221v2149z"/><path fill="#EDB895" fill-rule="nonzero" d="M19673 9316c-130 0-235 105-235 234v1777h469V9550c0-129-105-234-234-234zM19076 9135c-129 0-234 105-234 234v1983l468-54V9369c0-129-105-234-234-234zM18484 9614c-127 0-230 103-230 230v1816h460V9844c0-127-103-230-230-230zM20255 9793c-121 0-220 99-220 220v1285l440 29v-1314c0-121-98-220-220-220z"/><path fill="#DDA885" fill-rule="nonzero" d="M18253 13424v-1398l-259-326v1c-56-57-133-92-218-92-167 0-304 136-304 304 0 49 13 94 33 135l14 25c2 4 4 8 7 11l727 1340z"/><path fill="#EDB895" fill-rule="nonzero" d="M20475 13396c0 169-136 305-305 305h-1612c-169 0-305-136-305-305 0-168 136-305 305-305h1612c169 0 305 137 305 305z"/><path fill="#EDB895" fill-rule="nonzero" d="M20067 15585h-1404v-2228h1404v2228z"/><path fill="#F7941F" fill-rule="nonzero" d="M13113 14256h1138v2839h-1138v-2839z"/><path fill="#FCB108" fill-rule="nonzero" d="M11974 14256h1139v2839h-1139v-2839z"/><path fill="#666" fill-rule="nonzero" d="M14141 14751c0 112-91 203-203 203s-203-91-203-203 91-203 203-203 203 91 203 203z"/><path fill="#F7941F" fill-rule="nonzero" d="M19300 14256h-1138v2839h1138v-2839z"/><path fill="#FCB108" fill-rule="nonzero" d="M20439 14256h-1139v2839h1139v-2839z"/><path fill="#666" fill-rule="nonzero" d="M18272 14751c0 112 91 203 203 203s203-91 203-203-91-203-203-203-203 91-203 203z"/><path fill="#EFD6C4" fill-rule="nonzero" d="M18619 9701h-300v224h2c-1 3-2 6-2 9 0 32 26 57 58 57h184c32 0 58-25 58-57 0-3-1-6-2-9h2v-224zM19216 9222h-300v224h2c-1 3-2 5-2 8 0 32 26 58 58 58h184c32 0 58-26 58-58 0-3-1-5-2-8h2v-224zM19800 9403h-274v205h1c0 2-1 5-1 8 0 29 23 52 52 52h169c29 0 53-23 53-52 0-3-1-6-2-8h2v-205zM20377 9901h-264v197h2c-1 3-2 5-2 7 0 28 23 51 51 51h162c29 0 51-23 51-51 0-2-1-4-1-7h1v-197zM13842 9761h300v224h-2c0 3 2 5 2 8 0 32-26 58-58 58h-185c-32 0-57-26-57-58 0-3 1-5 1-8h-1v-224zM13245 9281h300v224h-2c0 3 2 6 2 9 0 32-26 57-58 57h-185c-32 0-57-25-57-57 0-3 1-6 1-9h-1v-224zM12661 9463h274v205h-1c0 2 1 4 1 7 0 29-24 53-53 53h-168c-30 0-53-24-53-53 0-3 1-5 1-7h-1v-205zM12083 9960h265v198h-2c0 2 2 4 2 7 0 28-23 51-51 51h-163c-28 0-51-23-51-51 0-3 1-5 2-7h-2v-198z"/><path fill="#E6E6E6" fill-rule="nonzero" d="M13814 13701h-701v555h701v-555zM19300 13701h-637v555h637v-555z"/><path fill="#FEFEFE" d="M12146 13854h1933v402h-1933zM18334 13854h1933v402h-1933z"/><g><circle fill="#B3B3B3" cx="8640" cy="6552" r="1396"/><g fill="#FEFEFE"><path d="M8039 6242c175-16 344-48 366 143 10 82-11 155-53 201-51 56-108 59-205 59v215l-112-6 4-612zm736-346h771l4 1272h-775v-159h604v-79h-612l4-119h608l-4-80h-600l1-207c218 205 459 52 468-167h-262v-264c-90 2-163 41-205 95l-2-30v-262zm-1106-56l1 1436 1104 194 1-238c128 0 686 7 763-1 72-7 72-45 72-118V5960c0-72 4-116-65-126-61-8-655-2-770-2v-197l-973 171c-35 6-115 6-133 34z"/><path d="M9021 6318h271c-7-154-116-263-271-271v271zM8146 6536c84 0 134-10 134-99 0-85-46-101-130-92l-4 191z"/></g></g><g><circle fill="#4F95CF" cx="7992" cy="11011" r="1396"/><g fill="#FEFEFE"><path d="M7936 10414v517h711v-628c-25 0-63 8-89 12-29 4-60 9-90 13l-492 72c-15 2-40 0-40 14zM7936 11520h3c3-3 5-7 8-11 5-6 10-11 16-15 5-3 11-6 18-10 17-8 36-12 55-13 20 0 40 4 57 12 27 13 45 37 54 65l19 3c-9-33-17-60-17-64v-10h29c10 0 15 0 18 1 9 2 10 5 12 13v3l18 65c14 3 27 4 41 6l3-10c8-24 18-57 21-70l2-8h48l28 101 1 2 27 4 27-105 58-2c-11 37-23 76-35 114 19 3 37 5 55 8-5-4-9-9-13-15-1-2-3-5-4-7-7-16-8-34-3-50s16-30 32-40c3-1 6-3 9-4 3-2 13-5 21-8 7-2 14-4 18-4 9 0 20 1 31 2s22 3 31 7c16 6 14 24 13 39 0 4-1 7-1 10v19l-15-10c-16-11-35-16-51-16-7 0-14 1-19 3s-9 5-12 8c-1 3-3 6-3 10 0 8 2 12 4 15 3 3 8 5 14 8 3 2 1 1 3 2 5 2 8 4 14 6 2 1 5 2 10 4 3 2 6 3 9 4l18 9c6 3 11 7 17 12l2 2c4 3 7 7 9 11 5 0 8 1 11 1v-621h-711v524zm27 2c6 0 11 1 17 2 5-5 10-9 16-12 6-4 11-6 17-7 5-1 10-2 18-3 10-2 23 0 35 5 12 4 22 11 29 20 4 5 7 10 10 15l8 1 12 2c-9-19-22-35-41-44-14-7-31-10-48-10-16 0-32 4-46 11-6 3-11 6-16 9-4 3-8 6-11 10v1zm45 6l18 3c18 2 35 5 53 7-5-5-12-10-20-13-9-3-18-4-26-3-6 1-11 1-15 2s-7 2-10 4zm180 26l17 2-16-57s0-1-1-2h-16c3 11 8 29 14 50l2 7zm99 14l4 1h4c1-3 2-5 3-9l1-6c1-3 3-7 4-12 1-4 2-7 3-11l5-22 13 19c1 1 1 2 2 5l11 42 11 2-22-80h-17c-4 16-13 43-20 64l-2 7zm28 4zm102 15l12 2 26-91h-15l-23 89zm142 20c17 2 33 4 46 6-2-2-4-3-7-5-5-2-10-5-16-8l-9-3c-1-1-5-2-9-4-6-2-10-4-15-7 0 0-1 0-4-2-8-4-15-7-20-13-5-7-9-15-9-28 0-8 3-15 7-21 4-7 11-12 20-16 8-3 17-4 27-4 15 0 32 3 47 11 1-7 1-14-1-15-7-3-16-4-25-5-10-1-20-1-29-1-2 0-7 1-12 2-8 3-16 6-19 7l-6 3c-12 8-20 18-24 29-3 12-3 24 2 35l3 6c9 13 26 21 42 28 3 1 7 3 8 4 1 0 2 0 3 1zM7337 11435l383 53c11-7 23-12 35-14 13-3 27-4 41-1 15 2 29 9 41 18v-119h35v-384h-535v447zm421 59l60 8c-8-5-17-8-26-9-11-2-22-2-33 0l-1 1zm99 13l15 3v-118h-15v115zm-497-103c0 2 0 4 1 6s2 3 3 4c2 3 6 4 10 4 2 0 4 0 6-1 1 0 3-1 4-3 2-2 4-5 4-10 0-6-4-10-8-12-2-1-4-1-6-1s-4 0-6 1c-5 2-8 6-8 12zm-18 13c-1-4-2-8-2-13 0-16 9-26 20-31 5-1 9-2 14-2s9 1 13 2c12 5 21 15 21 31 0 11-4 19-10 25-3 3-7 5-11 7-4 1-9 2-13 2-9 0-18-3-25-10-3-3-5-7-7-11zM7337 10489v446h535v-518c-31 0-400 53-466 63-20 3-50 8-69 9z"/><path d="M7018 11714l39-2c3-10 6-21 9-32l18-64c3-11 6-20 9-31 2-11 6-21 9-32l18-64c2-8 6-25 6-34h2c0 24 16 72 23 99 3 11 6 20 9 31l27 96c3 10 6 24 10 33h42l22-78c7-27 14-53 22-79 8-27 14-53 22-79l16-59c2-6 5-14 5-21h-39c-3 12-6 23-9 34-18 68-43 154-56 219l-6 18c0-13-3-25-6-36l-55-200c-3-12-6-23-9-35h-35c-8 32-29 102-39 135l-37 135v1c-1-18-37-145-44-170l-19-69c-1-6-3-11-4-16-6-19 3-16-44-16 0 9 43 152 45 159l40 139c2 6 3 18 9 18zm332-310c0 7 2 13 7 17 12 13 41 8 41-17 0-31-48-31-48 0zm6 310c20 0 36 3 36-5v-218c0-7-16-4-36-4v227zm1355-268v37c9-4 22-8 38-16l25-14c4-3 4-4 9-5 0 81 1 172 0 253-1 16-5 13 35 13v-323c-7 4-8 0-16 5-4 3-7 5-11 8s-7 5-12 8-8 5-13 8c-9 5-17 10-26 15l-29 11zm-111 211c0 40-62 35-85 23l-27-14v39c36 19 85 20 121-2 31-18 38-66 12-90-1-1-2-2-3-2-10-10-19-14-32-20-6-2-12-5-18-7-8-3-12-5-19-9-13-7-23-12-23-32 0-35 58-42 100-14 0-13 6-35-6-40-16-7-40-8-58-8-7 0-30 8-35 11-36 16-49 56-29 87 11 19 33 26 54 36 22 10 48 16 48 42zm-1114-136v-34h-36v222c0 8 13 5 32 5 6 0 5-5 5-12l-1-116c0-30 7-44 24-60 23-21 64-23 82 15 11 24 7 139 7 173 21 0 37 3 37-5v-109c0-10-2-15-2-26 0-31-6-60-29-79-31-25-87-15-112 18l-7 8zm476 80c0-32 11-65 39-81 10-5 17-6 31-8 18-3 43 6 56 21 26 33 26 101 0 135-7 7-14 11-24 16-27 12-66 3-84-22-11-14-18-37-18-61zm-36-10c0 25 0 40 9 63 16 42 52 65 102 65 33 0 58-13 79-34 9-10 16-23 21-37 18-46 9-130-49-156-31-14-72-15-103 1-12 6-22 12-30 22-17 22-29 46-29 76zm1037 97c-16 0-28-1-41-15-37-37-32-155-18-201 16-51 62-62 89-36 8 8 14 18 18 31 9 26 11 58 12 86l-5 67c-5 29-21 68-55 68zm-106-138c0 46 4 85 20 118 7 14 17 26 29 35 29 22 70 21 100 1 14-9 22-21 31-36 3-5 8-16 10-22 12-36 11-49 13-86v-29c-1-42-12-92-44-120-15-14-37-18-59-18-77 0-100 92-100 157zm-632 164h35c4-6 5-14 8-21l34-113c3-8 5-15 7-23s5-16 6-23c1 0 1 0 1 1l24 91c4 15 9 30 13 44 15 52 4 44 45 44 6 0 9-16 12-25l59-202-37 2-48 187v-1l-2-5c-7-30-13-56-22-89l-26-94h-33c-4 18-22 74-28 93l-28 94c-1-15-7-35-11-48l-35-129c-4-13 2-10-40-10 0 7 52 180 58 198 3 9 6 19 8 29zm-440-26c-24 0-40-4-54-23-23-32-22-93-1-125 29-44 117-44 117 50 0 26-1 52-15 71-11 15-27 27-47 27zm62-171c-1-2-2-2-3-3-1-2-1-3-2-4-36-47-144-43-162 63-7 36-1 83 17 109 27 40 83 48 119 25 10-6 16-10 23-19 2-4 4-6 6-8l2 34c20 0 36 3 36-5v-327h-36v135z"/></g></g><g><circle fill="#999" cx="22085" cy="4295" r="1396"/><g fill="#FEFEFE"><path d="M21890 5048l289-205s106 108 140 153c12 16 29 42 43 54-21 21-106 31-138 34-99 11-246 5-334-36zm-515-557l184 29c18 4 51 14 67 16-16 34-29 209-28 258l2 84c-60-41-140-162-175-231l-48-127c-1-3-3-12-3-14-2-16 0-7 1-15zm369 82c26 15 127 55 195 93 55 32 91 64 143 93-29 44-295 215-344 221-28-56-12-281-3-353 2-15 7-38 9-54zm739 436l-97-127c-22-26-91-105-119-122 58-63 120-131 171-221l358 203c-49 53-57 88-147 161-61 49-103 74-166 106zm119-832c24 11 57 15 84 22 29 7 56 11 81 15 58 9 108 14 163 16 8 103-3 194-33 296-11 37-29 73-39 107l-359-203c29-50 45-83 65-139 12-34 23-84 38-114zm-82-577c12 26 12 168 10 203-1 12-9 205-25 209-29 9-220-112-254-132-31-18-51-40-82-58 42-61 300-219 351-222zm137 94c27 19 73 70 92 93 63 78 152 231 158 321-17-6-46-6-68-9-54-7-169-22-212-46 25-55 29-255 27-336 0-13 2-12 3-23zm-582 40c-25-15-75-73-94-96l-78-100c43-21 166-37 218-37 78-1 155 7 241 32-44 22-171 102-215 141-23 20-50 44-72 60zm-581-197c222 126 167 114 234 77 21-11 38-22 58-32 52 81 139 200 227 250 59 33 221 115 259 160 80 96-26 32 134 114 28 15 50 20 75 31-3 36-61 188-86 234l-127-72c-36 63-72 104-49 117l114 64c-48 84-140 171-159 199-40-37-98-73-150-103-15-8-54-3-79-8-30-5-56-16-87-34-61-35-122-69-184-104-46-27-116-36-167-45l-164-21c9-33-7-81 4-119l-192-109c-13 27-15 120-15 147 1 100 10 220 45 312 5 15 8 17 12 34 52 184 230 411 453 537 473 268 1086 100 1357-379 401-709-177-1587-996-1482-61 8-70 14-101 19-60 10-54 16-103 29-70 19-282 131-313 184z"/><path d="M21954 4283l19-24c25 2 30 5 44 25-24 81-76 22-63-1zm-150-275c22 20 17 27 11 55-2 13-3 19-6 32l-4 23c-1 11-1 5 0 11 14-15 28-26 44-41 25-23 21-27 51-26 29 12 6 92-1 115 16-2 31-20 46-35 26-26 18-26 51-25 20 30 26 28-58 95-51 41-55 60-84 43-23-13 7-70-1-110-14 16-71 69-90 58-22-12-15-27-11-52l17-108c4-28 14-31 35-35zm-244-139c25 24 15 58-2 115 17-2 27-18 43-31 23-19 37-43 61-24 20 17-2 90-8 109 39-4 43-62 98-60 20 31 25 28-58 96-52 41-55 59-84 43-23-13 7-70-1-111-15 16-71 70-91 59-25-15-10-58-2-106 3-20 6-34 8-55 4-27 15-31 36-35zm-272-131c9-3 18-6 27-7 28 25 15 60-1 114 34-4 63-73 97-58 22 10 16 30 12 50-4 19-7 42-13 62 32-3 44-52 93-62 36 33 11 46-54 98-38 31-53 61-84 43-24-14 12-82-1-110-27 29-117 110-102 14l26-144zm-122-121l-114 201c-41 72-12 172 46 205l816 462c42 24 91 20 124 9 80-28 139-168 190-258 56-98 31-190-68-246l-746-423c-100-56-194-46-248 50z"/></g></g><g><circle fill="#D63636" cx="11790" cy="4295" r="1396"/><path fill="#FEFEFE" d="M11059 4869c27-5 40-6 69-14 29-9 39-15 71-12l32 152c-45-2-92 29-140 26l-32-152zm-67-265c59-10 184-53 219-51 8 46 36 109 32 152l-219 51c-13-73-20-43-32-152zm332-86c44-12 89-25 133-38l32 153c-12 9-101 48-118 53-19-24-27-75-39-118-1-1-5-20-6-20-3-18-1-24-2-30zm-405-161c55 3 88-30 140-25-1 30 10 50 16 76 6 27 12 49 16 76-56-5-87 28-140 26 4-44-19-81-32-153zm412 610c3-58-40-112-35-174 35 2 68-14 103-23l627-168c34-7 73-26 110-24-2 39 22 120 29 161l-416 115c-73 21-138 39-208 59-71 20-135 41-210 54zm236-512c46 2 82-24 119-23 18 23 46 114 44 147-37 10-87 32-131 28-7-25-12-45-21-73-9-31-18-42-11-79zm-407-152c52 3 84-30 140-25-2 30 8 50 16 76 9 29 11 45 16 76-55-3-88 30-140 25 2-30-21-88-32-152zm1076 246c49 3 95-28 140-26 10 52 23 99 32 153-41-2-82 30-140 25 4-43-24-105-32-152zm-435-160c46-8 92-23 128-20-2 40 25 110 32 152-40 7-101 29-140 26 5-50-10-75-17-114-4-21-1-30-3-44zm-404-161c52 2 84-31 140-26-13 55 31 108 17 168-57-5-65 25-119 22-26-36-33-120-38-164zm1071 264c66-12 97-36 140-26-5 57 36 93 22 150-48 8-84 20-130 28 1-30-9-50-17-76-8-29-10-46-15-76zm-435-160c40-8 89-34 121-32 18 24 39 112 45 146-44 12-84 29-125 41-9-52-27-105-41-155zm-405-161c35-10 98-32 131-29 9 32 35 123 32 152-47-2-69 35-121 32l-42-155zm241-55c35-10 98-31 131-28 10 36 35 113 32 152-36-2-92 22-131 29-15-87-23-71-32-153zm430 301l-35-143c23-6 45-13 67-18 31-7 40-11 67-20l143-34c8 46 36 108 32 152l-202 53c-29 10-40 13-72 10zm-202-379c56 5 88-28 140-26-2 33 22 123 29 162-28 5-103 20-128 19-14-51-26-104-41-155zm231-57c48-9 90-30 141-26 9 53 42 121 41 155-36-2-92 22-131 29-15-52-35-105-51-158zm-721-466c311 100 183 252 105 266-79 14-274-16-357-24-129-13-326 9-373 154-68 213 13 223-3 293-23-2-167 16-189 81-24 77 53 264 73 354l60 222c12 41 17 69 28 109s21 71 29 107c32 147 141 92 294 48 75-22 143-36 216-58l984-263c25-8 25-9 53-16 322-76 294-69 220-332l-122-459c-6-22-11-30-17-52-7-25-8-41-15-62-45-147-115-83-250-53l-438 118c-127 36-774 214-811 213-15-55-61-181 22-257 80-73 293-41 416-23 82 11 196 13 269-33 124-78 134-203 64-289-59-72-120-111-207-139-46-15-35 46-51 95z"/></g><g><circle fill="#379E25" cx="27010" cy="11011" r="1394"/><g fill="#FEFEFE"><path d="M27523 11394h310v188h-310v-188zm1-244h309v188h-310l1-188zm-1-244h310v188h-310v-188zm0-244h310v187h-310v-187zm0-245h310v188h-310v-188zm-328 188l2 57h270v187h-272l2 57h270v188h-272l2 56h270v188h-272l2 56h270v188h-272v122h747c20-25 13-27 13-75l1-1289c-1-14-7-17-14-26h-747l2 103h270v188h-272zM26064 10284l1079-177-7 1809-1071-187-1-1445zm772 369l-163 329 163 329h-124l-102-204-101 204h-125l164-329-164-329h125l101 203 101-203h125z"/></g></g><g><path fill="#F2A50C" fill-rule="nonzero" d="M18355 3559c-188-303-493-535-868-623s-750-15-1054 173c-303 188-535 493-623 868s-15 750 173 1054c189 303 493 535 868 623s751 15 1054-173c304-188 535-493 623-868s15-750-173-1054z"/><g fill="#FEFEFE"><path d="M16837 4966c-8 34 190 196 310 225 132 30 243 21 364 3 27-3 35-4 49-29 80-145 179-306 262-453l66-117c4-18-16-12-29-10-182 27-383 6-540-99-32-21-75-51-103-78-11-11-19-21-35-27-31 29-228 385-259 437-13 21-82 135-85 148zM16450 3995c-5 22 32 9 71 5 29-2 55-4 84-4 184-3 342 39 484 158 12 10 22 17 33 28s19 21 35 27c13-12 14-13 24-31l64-110c15-25 28-49 42-73 14-25 29-48 44-74 29-52 57-96 86-148 14-26 29-49 42-72 57-96 59-78-12-147-76-74-171-135-282-161-98-23-245-13-338 3-29 4-34 4-49 30l-196 339c-22 39-43 75-66 113l-66 117z"/><path d="M16053 4703c23 6 52-4 87-6 179-8 314 0 473 98 25 15 49 33 73 51 57 42 69 86 97 35 9-16 15-26 22-38l302-519c6-26-92-104-113-121-119-93-214-123-363-124-64-1-126 4-185 13-68 11-46 7-115 122l-234 403c-13 21-37 59-44 86zM17232 4266c-10 40 196 188 273 215 117 40 272 35 388 17 52-8 45-2 68-41l93-161c33-55 223-374 231-409-20-5-57 3-86 6-437 37-563-194-628-209-4 9-4 6-9 15l-202 346c-15 25-27 48-42 73l-86 148z"/></g></g><g><circle fill="#C38300" cx="26220" cy="6552" r="1396"/><path fill="#FEFEFE" d="M27057 7171h-668v-85h625v-87h-625l-1-119h626v-71h-627l-1-118h628v-82h-629l-1-111h630v-71h-630v-128h630v-72h-630v-134h630v-49h-630v-172h673v1299zm-1448-346h122l90-403 77 403h117l126-590h-103l-73 456-90-411h-99l-95 406-72-406h-95l95 545zm1438-1020h-655v-155l-1077 167v1445l1077 192v-224h655c43 0 79-32 79-71V5876c0-39-36-71-79-71z"/></g></svg>